<mxfile host="app.diagrams.net" agent="Mozilla/5.0 (Windows NT 10.0; Win64; x64) AppleWebKit/537.36 (KHTML, like Gecko) Chrome/138.0.0.0 Safari/537.36" version="27.2.0">
  <diagram name="Page-1" id="2GY_7wuPncDDB6MdZIyX">
    <mxGraphModel dx="2253" dy="777" grid="1" gridSize="10" guides="1" tooltips="1" connect="1" arrows="1" fold="1" page="1" pageScale="1" pageWidth="827" pageHeight="1169" math="0" shadow="0">
      <root>
        <mxCell id="0" />
        <mxCell id="1" parent="0" />
        <mxCell id="3T3PI2FYbwUi27SVwXz3-1" value="&lt;b&gt;Health Outcomes&lt;/b&gt;&lt;div&gt;&amp;nbsp;Average lifespan&lt;/div&gt;&lt;div&gt;&amp;nbsp;Prevalence of Disease X&lt;/div&gt;&lt;div&gt;&amp;nbsp;Severity of Disease X:&lt;/div&gt;&lt;div&gt;&lt;span style=&quot;white-space: pre;&quot;&gt;&#x9;&lt;/span&gt;-Symptom scoring&lt;/div&gt;&lt;div&gt;&lt;span style=&quot;white-space: pre;&quot;&gt;&#x9;&lt;/span&gt;-Complication rate&lt;/div&gt;&lt;div&gt;&lt;span style=&quot;white-space: pre;&quot;&gt;&#x9;&lt;/span&gt;-Blood markers&lt;/div&gt;" style="rounded=0;whiteSpace=wrap;html=1;align=left;glass=0;fillColor=#DC1FFF;" parent="1" vertex="1">
          <mxGeometry x="160" y="160" width="160" height="110" as="geometry" />
        </mxCell>
        <mxCell id="vc5VWoNZY2dbi_GcXNYW-9" style="edgeStyle=orthogonalEdgeStyle;shape=flexArrow;rounded=0;orthogonalLoop=1;jettySize=auto;html=1;exitX=0.5;exitY=1;exitDx=0;exitDy=0;entryX=0.5;entryY=0;entryDx=0;entryDy=0;strokeColor=none;align=center;verticalAlign=middle;fontFamily=Helvetica;fontSize=11;fontColor=default;labelBackgroundColor=default;endArrow=classic;fillColor=#DC1FFF;gradientColor=#00FFA3;" edge="1" parent="1" source="3T3PI2FYbwUi27SVwXz3-2" target="vc5VWoNZY2dbi_GcXNYW-6">
          <mxGeometry relative="1" as="geometry" />
        </mxCell>
        <mxCell id="3T3PI2FYbwUi27SVwXz3-2" value="&lt;div&gt;&lt;b&gt;Modifiable Causative Variables (Intervention Targets)&lt;/b&gt;&lt;/div&gt;&lt;div&gt;&lt;span style=&quot;background-color: transparent; color: light-dark(rgb(0, 0, 0), rgb(255, 255, 255));&quot;&gt;&amp;nbsp;Prescribing rate*&lt;/span&gt;&lt;/div&gt;&lt;div&gt;&lt;span style=&quot;background-color: transparent; color: light-dark(rgb(0, 0, 0), rgb(255, 255, 255));&quot;&gt;&amp;nbsp;Screening rate*&lt;/span&gt;&lt;/div&gt;&lt;div&gt;&lt;span style=&quot;background-color: transparent; color: light-dark(rgb(0, 0, 0), rgb(255, 255, 255));&quot;&gt;&amp;nbsp;Review rate*&lt;/span&gt;&lt;/div&gt;&lt;div&gt;&lt;span style=&quot;background-color: transparent; color: light-dark(rgb(0, 0, 0), rgb(255, 255, 255));&quot;&gt;&amp;nbsp;Access to care&lt;/span&gt;&lt;/div&gt;&lt;div&gt;&lt;span style=&quot;background-color: transparent; color: light-dark(rgb(0, 0, 0), rgb(255, 255, 255));&quot;&gt;&amp;nbsp;Behavioural risks&lt;/span&gt;&lt;/div&gt;&lt;div&gt;&lt;span style=&quot;background-color: transparent; color: light-dark(rgb(0, 0, 0), rgb(255, 255, 255));&quot;&gt;&amp;nbsp;Psycho-social factors&lt;/span&gt;&lt;/div&gt;&lt;div&gt;&lt;span style=&quot;background-color: transparent; color: light-dark(rgb(0, 0, 0), rgb(255, 255, 255));&quot;&gt;&amp;nbsp;Prevalence of co-existing chronic disease&lt;/span&gt;&lt;/div&gt;&lt;div&gt;&lt;span style=&quot;background-color: transparent; color: light-dark(rgb(0, 0, 0), rgb(255, 255, 255));&quot;&gt;&amp;nbsp;Wider determinants of health&lt;/span&gt;&lt;/div&gt;" style="rounded=0;whiteSpace=wrap;html=1;align=left;verticalAlign=top;glass=0;fillColor=#DC1FFF;" parent="1" vertex="1">
          <mxGeometry x="-20" y="475" width="240" height="155" as="geometry" />
        </mxCell>
        <mxCell id="vc5VWoNZY2dbi_GcXNYW-10" style="edgeStyle=orthogonalEdgeStyle;shape=flexArrow;rounded=0;orthogonalLoop=1;jettySize=auto;html=1;exitX=0.5;exitY=1;exitDx=0;exitDy=0;entryX=0.5;entryY=0;entryDx=0;entryDy=0;strokeColor=default;align=center;verticalAlign=middle;fontFamily=Helvetica;fontSize=11;fontColor=default;labelBackgroundColor=default;endArrow=classic;fillColor=#DC1FFF;gradientColor=#00FFA3;" edge="1" parent="1" source="3T3PI2FYbwUi27SVwXz3-5" target="vc5VWoNZY2dbi_GcXNYW-6">
          <mxGeometry relative="1" as="geometry" />
        </mxCell>
        <mxCell id="3T3PI2FYbwUi27SVwXz3-5" value="&lt;div&gt;&lt;b&gt;Unmodifiable Causative Variables (Confounders)&lt;/b&gt;&lt;/div&gt;&lt;div&gt;&amp;nbsp;Age&lt;/div&gt;&lt;div&gt;&amp;nbsp;Sex (if biological difference)&lt;/div&gt;&lt;div&gt;&amp;nbsp;Genetics&lt;/div&gt;&lt;div&gt;&amp;nbsp;Past exposure to toxins or trauma&lt;/div&gt;" style="rounded=0;whiteSpace=wrap;html=1;align=left;verticalAlign=top;glass=0;shadow=0;fillColor=#DC1FFF;" parent="1" vertex="1">
          <mxGeometry x="260" y="475" width="240" height="95" as="geometry" />
        </mxCell>
        <mxCell id="3T3PI2FYbwUi27SVwXz3-8" style="edgeStyle=orthogonalEdgeStyle;rounded=0;orthogonalLoop=1;jettySize=auto;html=1;exitX=0.5;exitY=1;exitDx=0;exitDy=0;entryX=0.5;entryY=0;entryDx=0;entryDy=0;shape=flexArrow;fillColor=#00FFA3;gradientColor=#DC1FFF;" parent="1" source="3T3PI2FYbwUi27SVwXz3-6" target="3T3PI2FYbwUi27SVwXz3-1" edge="1">
          <mxGeometry relative="1" as="geometry" />
        </mxCell>
        <mxCell id="3T3PI2FYbwUi27SVwXz3-6" value="&lt;div&gt;&lt;b&gt;Identify Health Outcomes &lt;/b&gt;of interest.&lt;/div&gt;&lt;div&gt;&lt;span style=&quot;background-color: transparent; color: light-dark(rgb(0, 0, 0), rgb(255, 255, 255));&quot;&gt;&amp;nbsp;Top local causes of mortality / morbidity&lt;/span&gt;&lt;/div&gt;&lt;div&gt;&amp;nbsp;Causes of mortality / morbidity with greatest variation from national&lt;br&gt;&lt;/div&gt;" style="rounded=0;whiteSpace=wrap;html=1;align=left;glass=0;fillColor=#00FFA3;" parent="1" vertex="1">
          <mxGeometry x="40" y="40" width="400" height="60" as="geometry" />
        </mxCell>
        <mxCell id="3T3PI2FYbwUi27SVwXz3-7" value="&lt;div&gt;&lt;b&gt;Consider causative&amp;nbsp;&lt;/b&gt;&lt;b&gt;factors &lt;/b&gt;of variation in the health outcome.&lt;/div&gt;" style="rounded=0;whiteSpace=wrap;html=1;align=left;glass=0;fillColor=#00FFA3;" parent="1" vertex="1">
          <mxGeometry x="85" y="320" width="310" height="40" as="geometry" />
        </mxCell>
        <mxCell id="vc5VWoNZY2dbi_GcXNYW-1" style="edgeStyle=orthogonalEdgeStyle;rounded=0;orthogonalLoop=1;jettySize=auto;html=1;exitX=0.5;exitY=1;exitDx=0;exitDy=0;entryX=0.5;entryY=0;entryDx=0;entryDy=0;shape=flexArrow;fillColor=#DC1FFF;gradientColor=#00FFA3;" edge="1" parent="1" source="3T3PI2FYbwUi27SVwXz3-1" target="3T3PI2FYbwUi27SVwXz3-7">
          <mxGeometry relative="1" as="geometry">
            <mxPoint x="520" y="330" as="sourcePoint" />
            <mxPoint x="520" y="400" as="targetPoint" />
          </mxGeometry>
        </mxCell>
        <mxCell id="vc5VWoNZY2dbi_GcXNYW-3" style="edgeStyle=orthogonalEdgeStyle;rounded=0;orthogonalLoop=1;jettySize=auto;html=1;exitX=0.5;exitY=1;exitDx=0;exitDy=0;entryX=0.5;entryY=0;entryDx=0;entryDy=0;shape=flexArrow;fillColor=#00FFA3;gradientColor=#DC1FFF;" edge="1" parent="1" source="3T3PI2FYbwUi27SVwXz3-7" target="3T3PI2FYbwUi27SVwXz3-2">
          <mxGeometry relative="1" as="geometry">
            <mxPoint x="180" y="440" as="sourcePoint" />
            <mxPoint x="180" y="510" as="targetPoint" />
          </mxGeometry>
        </mxCell>
        <mxCell id="vc5VWoNZY2dbi_GcXNYW-4" style="edgeStyle=orthogonalEdgeStyle;rounded=0;orthogonalLoop=1;jettySize=auto;html=1;exitX=0.5;exitY=1;exitDx=0;exitDy=0;entryX=0.5;entryY=0;entryDx=0;entryDy=0;shape=flexArrow;fillColor=#00FFA3;gradientColor=#DC1FFF;" edge="1" parent="1" source="3T3PI2FYbwUi27SVwXz3-7" target="3T3PI2FYbwUi27SVwXz3-5">
          <mxGeometry relative="1" as="geometry">
            <mxPoint x="240" y="450" as="sourcePoint" />
            <mxPoint x="240" y="520" as="targetPoint" />
          </mxGeometry>
        </mxCell>
        <mxCell id="vc5VWoNZY2dbi_GcXNYW-6" value="&lt;div&gt;&lt;b&gt;Design metrics&lt;/b&gt; which measure Intervention Targets with an awareness of Confounders.&amp;nbsp;&lt;/div&gt;" style="rounded=0;whiteSpace=wrap;html=1;align=left;glass=0;fillColor=#00FFA3;" vertex="1" parent="1">
          <mxGeometry x="270" y="710" width="220" height="50" as="geometry" />
        </mxCell>
        <mxCell id="vc5VWoNZY2dbi_GcXNYW-42" style="edgeStyle=orthogonalEdgeStyle;shape=flexArrow;rounded=0;orthogonalLoop=1;jettySize=auto;html=1;exitX=0.5;exitY=0;exitDx=0;exitDy=0;entryX=0.5;entryY=1;entryDx=0;entryDy=0;strokeColor=default;align=center;verticalAlign=middle;fontFamily=Helvetica;fontSize=11;fontColor=default;labelBackgroundColor=default;endArrow=classic;fillColor=#DC1FFF;gradientColor=#00FFA3;" edge="1" parent="1" source="vc5VWoNZY2dbi_GcXNYW-11" target="vc5VWoNZY2dbi_GcXNYW-26">
          <mxGeometry relative="1" as="geometry" />
        </mxCell>
        <mxCell id="vc5VWoNZY2dbi_GcXNYW-11" value="&lt;div&gt;&lt;span style=&quot;background-color: transparent; color: light-dark(rgb(0, 0, 0), rgb(255, 255, 255));&quot;&gt;&lt;b&gt;Breakdown metrics in inequality&amp;nbsp;&lt;/b&gt;&lt;b&gt;groups &lt;/b&gt;of interest&amp;nbsp;at ICB level.&amp;nbsp;&lt;/span&gt;&lt;span style=&quot;background-color: transparent; color: light-dark(rgb(0, 0, 0), rgb(255, 255, 255));&quot;&gt;Adds context on how to approach the issue.&lt;/span&gt;&lt;/div&gt;" style="rounded=0;whiteSpace=wrap;html=1;align=left;glass=0;fillColor=#00FFA3;" vertex="1" parent="1">
          <mxGeometry x="897.5" y="520" width="240" height="70" as="geometry" />
        </mxCell>
        <mxCell id="vc5VWoNZY2dbi_GcXNYW-17" style="edgeStyle=orthogonalEdgeStyle;shape=flexArrow;rounded=0;orthogonalLoop=1;jettySize=auto;html=1;entryX=0;entryY=0.5;entryDx=0;entryDy=0;strokeColor=default;align=center;verticalAlign=middle;fontFamily=Helvetica;fontSize=11;fontColor=default;labelBackgroundColor=default;endArrow=classic;fillColor=#DC1FFF;gradientColor=#00FFA3;exitX=1;exitY=0.5;exitDx=0;exitDy=0;gradientDirection=west;" edge="1" parent="1" source="vc5VWoNZY2dbi_GcXNYW-6" target="vc5VWoNZY2dbi_GcXNYW-35">
          <mxGeometry relative="1" as="geometry">
            <mxPoint x="540" y="690" as="sourcePoint" />
            <mxPoint x="580" y="740" as="targetPoint" />
            <Array as="points" />
          </mxGeometry>
        </mxCell>
        <mxCell id="vc5VWoNZY2dbi_GcXNYW-30" style="edgeStyle=orthogonalEdgeStyle;shape=flexArrow;rounded=0;orthogonalLoop=1;jettySize=auto;html=1;exitX=0.5;exitY=1;exitDx=0;exitDy=0;entryX=0.5;entryY=0;entryDx=0;entryDy=0;strokeColor=default;align=center;verticalAlign=middle;fontFamily=Helvetica;fontSize=11;fontColor=default;labelBackgroundColor=default;endArrow=classic;fillColor=#DC1FFF;gradientColor=#00FFA3;" edge="1" parent="1" source="3T3PI2FYbwUi27SVwXz3-2" target="vc5VWoNZY2dbi_GcXNYW-12">
          <mxGeometry relative="1" as="geometry" />
        </mxCell>
        <mxCell id="vc5VWoNZY2dbi_GcXNYW-50" style="edgeStyle=orthogonalEdgeStyle;shape=flexArrow;rounded=0;orthogonalLoop=1;jettySize=auto;html=1;exitX=0.5;exitY=1;exitDx=0;exitDy=0;entryX=0.5;entryY=1;entryDx=0;entryDy=0;strokeColor=default;align=center;verticalAlign=middle;fontFamily=Helvetica;fontSize=11;fontColor=default;labelBackgroundColor=default;endArrow=classic;fillColor=#00FFA3;gradientColor=#DC1FFF;gradientDirection=east;" edge="1" parent="1" source="vc5VWoNZY2dbi_GcXNYW-12" target="vc5VWoNZY2dbi_GcXNYW-34">
          <mxGeometry relative="1" as="geometry">
            <Array as="points">
              <mxPoint x="100" y="820" />
              <mxPoint x="1018" y="820" />
            </Array>
          </mxGeometry>
        </mxCell>
        <mxCell id="vc5VWoNZY2dbi_GcXNYW-12" value="&lt;b&gt;Consider if socio-demographic groups &lt;/b&gt;may be disproportionately affected by a causative variable." style="rounded=0;whiteSpace=wrap;html=1;align=left;glass=0;fillColor=#00FFA3;" vertex="1" parent="1">
          <mxGeometry x="-20" y="710" width="240" height="50" as="geometry" />
        </mxCell>
        <mxCell id="vc5VWoNZY2dbi_GcXNYW-41" style="edgeStyle=orthogonalEdgeStyle;shape=flexArrow;rounded=0;orthogonalLoop=1;jettySize=auto;html=1;exitX=0.5;exitY=0;exitDx=0;exitDy=0;entryX=0.5;entryY=1;entryDx=0;entryDy=0;strokeColor=default;align=center;verticalAlign=middle;fontFamily=Helvetica;fontSize=11;fontColor=default;labelBackgroundColor=default;endArrow=classic;fillColor=#DC1FFF;gradientColor=#00FFA3;" edge="1" parent="1" source="vc5VWoNZY2dbi_GcXNYW-16" target="vc5VWoNZY2dbi_GcXNYW-25">
          <mxGeometry relative="1" as="geometry" />
        </mxCell>
        <mxCell id="vc5VWoNZY2dbi_GcXNYW-16" value="&lt;div&gt;&lt;span style=&quot;background-color: transparent; color: light-dark(rgb(0, 0, 0), rgb(255, 255, 255));&quot;&gt;&lt;b&gt;Look for variation&amp;nbsp;&lt;/b&gt;&lt;/span&gt;&lt;span style=&quot;background-color: transparent; color: light-dark(rgb(0, 0, 0), rgb(255, 255, 255));&quot;&gt;in metrics&lt;/span&gt;&lt;span style=&quot;background-color: transparent; color: light-dark(rgb(0, 0, 0), rgb(255, 255, 255));&quot;&gt;&amp;nbsp;across organisations, highlighting outliers for investigation.&lt;/span&gt;&lt;/div&gt;" style="rounded=0;whiteSpace=wrap;html=1;align=left;glass=0;fillColor=#00FFA3;" vertex="1" parent="1">
          <mxGeometry x="609.68" y="520" width="220.63" height="70" as="geometry" />
        </mxCell>
        <mxCell id="vc5VWoNZY2dbi_GcXNYW-51" style="edgeStyle=orthogonalEdgeStyle;shape=flexArrow;rounded=0;orthogonalLoop=1;jettySize=auto;html=1;exitX=0.5;exitY=0;exitDx=0;exitDy=0;entryX=0.5;entryY=1;entryDx=0;entryDy=0;strokeColor=default;align=center;verticalAlign=middle;fontFamily=Helvetica;fontSize=11;fontColor=default;labelBackgroundColor=default;endArrow=classic;fillColor=#DC1FFF;gradientColor=#00FFA3;" edge="1" parent="1" source="vc5VWoNZY2dbi_GcXNYW-19" target="vc5VWoNZY2dbi_GcXNYW-20">
          <mxGeometry relative="1" as="geometry" />
        </mxCell>
        <mxCell id="vc5VWoNZY2dbi_GcXNYW-19" value="&lt;div&gt;&lt;span style=&quot;background-color: transparent; color: light-dark(rgb(0, 0, 0), rgb(255, 255, 255));&quot;&gt;&lt;b&gt;Design and deploy interventions &lt;/b&gt;to improve intervention target.&lt;/span&gt;&lt;/div&gt;" style="rounded=0;whiteSpace=wrap;html=1;align=left;glass=0;fillColor=#00FFA3;" vertex="1" parent="1">
          <mxGeometry x="765" y="280" width="200" height="40" as="geometry" />
        </mxCell>
        <mxCell id="vc5VWoNZY2dbi_GcXNYW-55" style="edgeStyle=orthogonalEdgeStyle;shape=flexArrow;rounded=0;orthogonalLoop=1;jettySize=auto;html=1;exitX=0.5;exitY=0;exitDx=0;exitDy=0;entryX=1;entryY=0.5;entryDx=0;entryDy=0;strokeColor=default;align=center;verticalAlign=middle;fontFamily=Helvetica;fontSize=11;fontColor=default;labelBackgroundColor=default;endArrow=classic;fillColor=#00FFA3;gradientColor=#DC1FFF;" edge="1" parent="1" source="vc5VWoNZY2dbi_GcXNYW-20" target="vc5VWoNZY2dbi_GcXNYW-21">
          <mxGeometry relative="1" as="geometry" />
        </mxCell>
        <mxCell id="vc5VWoNZY2dbi_GcXNYW-20" value="&lt;div&gt;&lt;span style=&quot;background-color: transparent; color: light-dark(rgb(0, 0, 0), rgb(255, 255, 255));&quot;&gt;&lt;b&gt;Typical Interventions&lt;/b&gt;&lt;/span&gt;&lt;/div&gt;&lt;div&gt;&lt;span style=&quot;background-color: transparent; color: light-dark(rgb(0, 0, 0), rgb(255, 255, 255));&quot;&gt;&amp;nbsp;Commision a service&lt;/span&gt;&lt;/div&gt;&lt;div&gt;&amp;nbsp;Update guidelines / formulary&lt;/div&gt;&lt;div&gt;&amp;nbsp;Educational events&lt;/div&gt;&lt;div&gt;&lt;span style=&quot;background-color: transparent; color: light-dark(rgb(0, 0, 0), rgb(255, 255, 255));&quot;&gt;&amp;nbsp;Targetted visits to outlying organisations&lt;/span&gt;&lt;/div&gt;&lt;div&gt;&lt;div&gt;&amp;nbsp;Public health campaign&lt;/div&gt;&lt;/div&gt;" style="rounded=0;whiteSpace=wrap;html=1;align=left;glass=0;fillColor=#DC1FFF;" vertex="1" parent="1">
          <mxGeometry x="752.5" y="130" width="225" height="100" as="geometry" />
        </mxCell>
        <mxCell id="vc5VWoNZY2dbi_GcXNYW-43" style="edgeStyle=orthogonalEdgeStyle;shape=flexArrow;rounded=0;orthogonalLoop=1;jettySize=auto;html=1;exitX=0;exitY=0.5;exitDx=0;exitDy=0;entryX=1;entryY=0.5;entryDx=0;entryDy=0;strokeColor=default;align=center;verticalAlign=middle;fontFamily=Helvetica;fontSize=11;fontColor=default;labelBackgroundColor=default;endArrow=classic;fillColor=#DC1FFF;gradientColor=#00FFA3;gradientDirection=east;" edge="1" parent="1" source="vc5VWoNZY2dbi_GcXNYW-21" target="vc5VWoNZY2dbi_GcXNYW-33">
          <mxGeometry relative="1" as="geometry" />
        </mxCell>
        <mxCell id="vc5VWoNZY2dbi_GcXNYW-21" value="&lt;div&gt;&lt;b&gt;Monitor Impact&lt;/b&gt;&lt;span style=&quot;background-color: transparent; color: light-dark(rgb(0, 0, 0), rgb(255, 255, 255)); white-space: pre;&quot;&gt;&#x9;&lt;/span&gt;&lt;/div&gt;" style="rounded=0;whiteSpace=wrap;html=1;align=left;glass=0;fillColor=#00FFA3;" vertex="1" parent="1">
          <mxGeometry x="702" y="47.5" width="125" height="45" as="geometry" />
        </mxCell>
        <mxCell id="vc5VWoNZY2dbi_GcXNYW-46" style="edgeStyle=orthogonalEdgeStyle;shape=flexArrow;rounded=0;orthogonalLoop=1;jettySize=auto;html=1;exitX=0.5;exitY=0;exitDx=0;exitDy=0;entryX=0.5;entryY=1;entryDx=0;entryDy=0;strokeColor=default;align=center;verticalAlign=middle;fontFamily=Helvetica;fontSize=11;fontColor=default;labelBackgroundColor=default;endArrow=classic;fillColor=#DC1FFF;gradientColor=#00FFA3;gradientDirection=north;" edge="1" parent="1" source="vc5VWoNZY2dbi_GcXNYW-25" target="vc5VWoNZY2dbi_GcXNYW-19">
          <mxGeometry relative="1" as="geometry">
            <Array as="points">
              <mxPoint x="720" y="370" />
              <mxPoint x="865" y="370" />
            </Array>
          </mxGeometry>
        </mxCell>
        <mxCell id="vc5VWoNZY2dbi_GcXNYW-25" value="&lt;div&gt;&lt;b&gt;Outlying Organisations&lt;/b&gt;&lt;/div&gt;" style="rounded=0;whiteSpace=wrap;html=1;align=left;glass=0;fillColor=#DC1FFF;" vertex="1" parent="1">
          <mxGeometry x="650" y="410" width="140" height="40" as="geometry" />
        </mxCell>
        <mxCell id="vc5VWoNZY2dbi_GcXNYW-47" style="edgeStyle=orthogonalEdgeStyle;shape=flexArrow;rounded=0;orthogonalLoop=1;jettySize=auto;html=1;exitX=0.5;exitY=0;exitDx=0;exitDy=0;strokeColor=default;align=center;verticalAlign=middle;fontFamily=Helvetica;fontSize=11;fontColor=default;labelBackgroundColor=default;endArrow=classic;fillColor=#DC1FFF;gradientColor=#00FFA3;gradientDirection=north;" edge="1" parent="1" source="vc5VWoNZY2dbi_GcXNYW-26" target="vc5VWoNZY2dbi_GcXNYW-19">
          <mxGeometry relative="1" as="geometry">
            <Array as="points">
              <mxPoint x="1018" y="370" />
              <mxPoint x="865" y="370" />
            </Array>
          </mxGeometry>
        </mxCell>
        <mxCell id="vc5VWoNZY2dbi_GcXNYW-26" value="&lt;b&gt;Health Inequalities&lt;/b&gt;" style="rounded=0;whiteSpace=wrap;html=1;align=left;glass=0;fillColor=#DC1FFF;" vertex="1" parent="1">
          <mxGeometry x="947.5" y="410" width="140" height="40" as="geometry" />
        </mxCell>
        <mxCell id="vc5VWoNZY2dbi_GcXNYW-44" style="edgeStyle=orthogonalEdgeStyle;shape=flexArrow;rounded=0;orthogonalLoop=1;jettySize=auto;html=1;exitX=0;exitY=0.5;exitDx=0;exitDy=0;entryX=1;entryY=0.5;entryDx=0;entryDy=0;strokeColor=default;align=center;verticalAlign=middle;fontFamily=Helvetica;fontSize=11;fontColor=default;labelBackgroundColor=default;endArrow=classic;fillColor=#DC1FFF;gradientColor=#00FFA3;gradientDirection=west;" edge="1" parent="1" source="vc5VWoNZY2dbi_GcXNYW-33" target="3T3PI2FYbwUi27SVwXz3-6">
          <mxGeometry relative="1" as="geometry" />
        </mxCell>
        <mxCell id="vc5VWoNZY2dbi_GcXNYW-33" value="&lt;span style=&quot;background-color: transparent; color: light-dark(rgb(0, 0, 0), rgb(255, 255, 255));&quot;&gt;&lt;b&gt;Dashboards&lt;/b&gt;&lt;br&gt;&lt;/span&gt;" style="rounded=0;whiteSpace=wrap;html=1;align=left;glass=0;fillColor=#DC1FFF;" vertex="1" parent="1">
          <mxGeometry x="500" y="47.5" width="130" height="45" as="geometry" />
        </mxCell>
        <mxCell id="vc5VWoNZY2dbi_GcXNYW-49" style="edgeStyle=orthogonalEdgeStyle;shape=flexArrow;rounded=0;orthogonalLoop=1;jettySize=auto;html=1;exitX=0.5;exitY=0;exitDx=0;exitDy=0;entryX=0.5;entryY=1;entryDx=0;entryDy=0;strokeColor=default;align=center;verticalAlign=middle;fontFamily=Helvetica;fontSize=11;fontColor=default;labelBackgroundColor=default;endArrow=classic;fillColor=#DC1FFF;gradientColor=#00FFA3;gradientDirection=north;" edge="1" parent="1" source="vc5VWoNZY2dbi_GcXNYW-34" target="vc5VWoNZY2dbi_GcXNYW-11">
          <mxGeometry relative="1" as="geometry" />
        </mxCell>
        <mxCell id="vc5VWoNZY2dbi_GcXNYW-34" value="&lt;div&gt;&lt;b&gt;Unmodifiable Associated Groupings (Inequality Groups)&lt;/b&gt;&lt;/div&gt;&lt;div&gt;&amp;nbsp;Ethnicity&lt;/div&gt;&lt;div&gt;&amp;nbsp;Deprivation&lt;/div&gt;&lt;div&gt;&lt;span style=&quot;background-color: transparent; color: light-dark(rgb(0, 0, 0), rgb(255, 255, 255));&quot;&gt;&amp;nbsp;Rurality&lt;/span&gt;&lt;/div&gt;&lt;div&gt;&amp;nbsp;Organisation&lt;/div&gt;&lt;div&gt;&amp;nbsp;Sex (if behavioural difference)&lt;/div&gt;" style="rounded=0;whiteSpace=wrap;html=1;align=left;glass=0;fillColor=#DC1FFF;" vertex="1" parent="1">
          <mxGeometry x="898.75" y="672.5" width="237.5" height="110" as="geometry" />
        </mxCell>
        <mxCell id="vc5VWoNZY2dbi_GcXNYW-48" style="edgeStyle=orthogonalEdgeStyle;shape=flexArrow;rounded=0;orthogonalLoop=1;jettySize=auto;html=1;exitX=0.5;exitY=0;exitDx=0;exitDy=0;entryX=0.5;entryY=1;entryDx=0;entryDy=0;strokeColor=default;align=center;verticalAlign=middle;fontFamily=Helvetica;fontSize=11;fontColor=default;labelBackgroundColor=default;endArrow=classic;fillColor=#DC1FFF;gradientColor=#00FFA3;gradientDirection=north;" edge="1" parent="1" source="vc5VWoNZY2dbi_GcXNYW-35" target="vc5VWoNZY2dbi_GcXNYW-16">
          <mxGeometry relative="1" as="geometry" />
        </mxCell>
        <mxCell id="vc5VWoNZY2dbi_GcXNYW-35" value="&lt;div&gt;&lt;span style=&quot;background-color: transparent; color: light-dark(rgb(0, 0, 0), rgb(255, 255, 255));&quot;&gt;&lt;b&gt;Typical Metric Formats&lt;/b&gt;&lt;/span&gt;&lt;/div&gt;&lt;div&gt;&amp;nbsp;Event count&lt;/div&gt;&lt;div&gt;&amp;nbsp;Event rates per 1000 patients&lt;/div&gt;&lt;div&gt;&lt;span style=&quot;background-color: transparent; color: light-dark(rgb(0, 0, 0), rgb(255, 255, 255));&quot;&gt;&amp;nbsp;Event rate within sub-categories&lt;/span&gt;&lt;/div&gt;&lt;div&gt;&lt;span style=&quot;background-color: transparent; color: light-dark(rgb(0, 0, 0), rgb(255, 255, 255));&quot;&gt;&lt;span style=&quot;white-space: pre;&quot;&gt;&#x9;&lt;/span&gt;-HRT prescribing per female patient aged 40-55y&lt;/span&gt;&lt;/div&gt;&lt;div&gt;&lt;span style=&quot;background-color: transparent; color: light-dark(rgb(0, 0, 0), rgb(255, 255, 255));&quot;&gt;&lt;span style=&quot;white-space: pre;&quot;&gt;&#x9;&lt;/span&gt;-SABA prescribing per patient with Asthma&lt;br&gt;&lt;/span&gt;&lt;/div&gt;&lt;div&gt;&lt;div&gt;&lt;span style=&quot;background-color: transparent; color: light-dark(rgb(0, 0, 0), rgb(255, 255, 255));&quot;&gt;&amp;nbsp;Event rate per weighted unit (&lt;/span&gt;&lt;span style=&quot;background-color: transparent; color: light-dark(rgb(0, 0, 0), rgb(255, 255, 255));&quot;&gt;with extreme caution)&lt;/span&gt;&lt;/div&gt;&lt;div&gt;&lt;span style=&quot;background-color: transparent; color: light-dark(rgb(0, 0, 0), rgb(255, 255, 255));&quot;&gt;&lt;span style=&quot;white-space: pre;&quot;&gt;&#x9;&lt;/span&gt;-Antibiotic prescribing per Age-Standardised Unit&lt;/span&gt;&lt;/div&gt;&lt;/div&gt;" style="rounded=0;whiteSpace=wrap;html=1;align=left;glass=0;fillColor=#DC1FFF;" vertex="1" parent="1">
          <mxGeometry x="570" y="672.5" width="300" height="125" as="geometry" />
        </mxCell>
      </root>
    </mxGraphModel>
  </diagram>
</mxfile>
